<?xml version="1.0" encoding="UTF-8"?>
<svg id="Layer_1" data-name="Layer 1" xmlns="http://www.w3.org/2000/svg" viewBox="0 0 265.28 61.89">
  <defs>
    <style>
      .cls-1 {
        fill: #fff;
        stroke-width: 0px;
      }
    </style>
  </defs>
  <path class="cls-1" d="M18.46,19.03v24.73h43.96v-24.73H18.46ZM57.36,39.7l-34.71-4.37v-7.88l34.71-4.36v16.61Z"/>
  <g>
    <path class="cls-1" d="M89.8,31.75c-.81-.49-1.65-.75-2.53-.8v-.24c.8-.19,1.53-.51,2.18-.95.65-.44,1.17-1.02,1.56-1.73.39-.71.58-1.57.58-2.58,0-1.22-.3-2.32-.89-3.28s-1.48-1.73-2.67-2.29c-1.19-.56-2.67-.84-4.46-.84h-9.47v24.73h10.01c1.89,0,3.46-.29,4.71-.88,1.25-.59,2.18-1.39,2.8-2.41.62-1.02.93-2.17.93-3.45s-.26-2.33-.77-3.21c-.52-.89-1.18-1.57-1.99-2.06ZM78.59,22.73h4.53c1.32,0,2.32.31,2.99.93.67.62,1.01,1.41,1.01,2.37,0,.72-.18,1.35-.54,1.88-.36.53-.85.93-1.47,1.22-.62.29-1.32.43-2.09.43h-4.43v-6.82ZM86.93,39.08c-.72.62-1.89.94-3.52.94h-4.82v-7.24h4.94c.93,0,1.72.17,2.39.51.67.34,1.18.81,1.54,1.4.36.59.54,1.25.54,1.99,0,.98-.36,1.79-1.08,2.41Z"/>
    <path class="cls-1" d="M107.4,26.32c-.73-.48-1.54-.82-2.43-1.03-.89-.21-1.78-.31-2.67-.31-1.3,0-2.48.19-3.55.57s-1.98.95-2.72,1.71c-.74.76-1.27,1.7-1.59,2.83l4.08.58c.22-.64.64-1.19,1.26-1.65s1.47-.7,2.54-.7c1.01,0,1.79.25,2.33.75s.81,1.2.81,2.11v.07c0,.42-.16.73-.46.92-.31.2-.8.34-1.48.43-.68.09-1.56.2-2.64.31-.9.1-1.77.25-2.62.46-.84.21-1.6.53-2.26.94-.67.41-1.2.96-1.58,1.64-.39.68-.58,1.55-.58,2.6,0,1.22.27,2.24.82,3.07.54.83,1.28,1.46,2.22,1.88.94.42,1.99.63,3.17.63.97,0,1.81-.14,2.53-.4.72-.27,1.32-.63,1.8-1.07.48-.45.85-.93,1.12-1.44h.15v2.55h4.2v-12.41c0-1.23-.22-2.26-.67-3.08-.45-.82-1.04-1.47-1.77-1.95ZM105.48,37.11c0,.68-.17,1.32-.53,1.9-.35.58-.85,1.04-1.49,1.39-.64.35-1.4.53-2.28.53s-1.66-.21-2.25-.62c-.59-.41-.88-1.02-.88-1.82,0-.56.15-1.02.45-1.38.3-.36.7-.64,1.22-.84.52-.2,1.1-.35,1.75-.43.29-.04.63-.09,1.03-.15.39-.06.79-.12,1.2-.19.4-.07.77-.16,1.09-.25.33-.1.56-.2.69-.31v2.19Z"/>
    <path class="cls-1" d="M118.45,29.22c.68-.48,1.46-.72,2.35-.72,1.05,0,1.9.3,2.53.9.63.6,1.03,1.35,1.2,2.24h4.18c-.1-1.34-.49-2.51-1.18-3.51-.69-1-1.62-1.78-2.78-2.33-1.16-.55-2.5-.83-4-.83-1.81,0-3.38.4-4.7,1.21-1.32.81-2.35,1.94-3.07,3.38-.72,1.44-1.09,3.11-1.09,4.99s.36,3.53,1.07,4.97c.71,1.44,1.73,2.56,3.05,3.37,1.32.81,2.91,1.22,4.76,1.22,1.55,0,2.91-.28,4.06-.85,1.15-.57,2.06-1.36,2.73-2.37.67-1.01,1.05-2.17,1.16-3.48h-4.18c-.13.67-.37,1.24-.71,1.7-.35.47-.77.82-1.29,1.07-.51.25-1.09.37-1.73.37-.91,0-1.7-.24-2.37-.73-.67-.49-1.19-1.18-1.56-2.09-.37-.91-.56-1.99-.56-3.25s.19-2.32.56-3.21.9-1.58,1.58-2.06Z"/>
    <polygon class="cls-1" points="147.19 25.21 142.08 25.21 135.42 32.66 135.11 32.66 135.11 19.03 130.74 19.03 130.74 43.76 135.11 43.76 135.11 37.53 136.71 35.82 142.38 43.76 147.61 43.76 140 33.22 147.19 25.21"/>
    <path class="cls-1" d="M157.92,33.18l-3.16-.68c-.94-.22-1.62-.5-2.02-.83s-.61-.78-.6-1.32c0-.63.3-1.14.91-1.53.62-.39,1.38-.59,2.29-.59.68,0,1.25.11,1.71.33s.84.5,1.12.86c.28.35.47.73.59,1.13l3.98-.43c-.3-1.58-1.07-2.83-2.32-3.75s-2.96-1.39-5.14-1.39c-1.48,0-2.79.23-3.92.69s-2.01,1.12-2.64,1.96c-.63.84-.94,1.83-.94,2.98,0,1.35.41,2.47,1.27,3.35.85.88,2.17,1.51,3.95,1.88l3.16.66c.85.19,1.48.45,1.89.8.41.35.61.78.61,1.32,0,.63-.32,1.16-.95,1.58-.63.43-1.47.64-2.51.64s-1.82-.21-2.45-.64-1.04-1.06-1.23-1.9l-4.26.41c.27,1.71,1.09,3.04,2.47,3.99,1.38.95,3.21,1.43,5.48,1.43,1.54,0,2.91-.25,4.1-.75s2.12-1.19,2.79-2.08c.67-.89,1.01-1.92,1.02-3.08,0-1.33-.44-2.4-1.3-3.22-.86-.82-2.16-1.42-3.92-1.8Z"/>
    <path class="cls-1" d="M170.95,29.22c.68-.48,1.46-.72,2.35-.72,1.05,0,1.9.3,2.53.9.63.6,1.03,1.35,1.2,2.24h4.18c-.1-1.34-.49-2.51-1.18-3.51-.69-1-1.62-1.78-2.78-2.33-1.16-.55-2.5-.83-4-.83-1.81,0-3.38.4-4.7,1.21-1.32.81-2.35,1.94-3.07,3.38-.72,1.44-1.09,3.11-1.09,4.99s.36,3.53,1.07,4.97c.71,1.44,1.73,2.56,3.05,3.37,1.32.81,2.91,1.22,4.76,1.22,1.55,0,2.91-.28,4.06-.85,1.15-.57,2.06-1.36,2.73-2.37.67-1.01,1.05-2.17,1.16-3.48h-4.18c-.13.67-.37,1.24-.71,1.7-.35.47-.77.82-1.29,1.07-.51.25-1.09.37-1.73.37-.91,0-1.7-.24-2.37-.73-.67-.49-1.19-1.18-1.56-2.09-.37-.91-.56-1.99-.56-3.25s.19-2.32.56-3.21.9-1.58,1.58-2.06Z"/>
    <path class="cls-1" d="M192.26,24.95c-1.06,0-2.01.29-2.83.88-.83.58-1.41,1.41-1.75,2.48h-.19v-3.09h-4.24v18.55h4.37v-10.9c0-.79.18-1.48.54-2.09.36-.6.86-1.08,1.49-1.42.63-.34,1.35-.51,2.14-.51.37,0,.75.03,1.15.08s.69.11.88.17v-4.02c-.2-.04-.45-.07-.75-.09-.3-.02-.57-.03-.81-.03Z"/>
    <path class="cls-1" d="M208.87,27.22c-.79-.76-1.69-1.33-2.7-1.7-1.02-.37-2.1-.55-3.24-.55-1.77,0-3.31.4-4.62,1.21-1.31.81-2.33,1.94-3.06,3.38-.73,1.44-1.09,3.12-1.09,5.03s.36,3.62,1.09,5.05c.72,1.43,1.76,2.53,3.11,3.31,1.35.78,2.95,1.17,4.81,1.17,1.44,0,2.72-.22,3.84-.66,1.12-.44,2.04-1.06,2.76-1.86.72-.8,1.21-1.74,1.47-2.82l-4.08-.46c-.19.52-.48.96-.86,1.32-.38.35-.83.62-1.34.8-.52.18-1.09.27-1.73.27-.95,0-1.78-.2-2.49-.61-.71-.41-1.26-.99-1.65-1.76-.38-.74-.57-1.63-.59-2.66h12.91v-1.34c0-1.63-.23-3.03-.68-4.21-.45-1.18-1.07-2.15-1.85-2.92ZM198.5,32.74c.04-.73.22-1.4.56-2.02.38-.7.9-1.26,1.58-1.69.68-.43,1.46-.65,2.35-.65.84,0,1.57.19,2.2.57s1.12.9,1.48,1.55c.35.66.54,1.4.54,2.24h-8.71Z"/>
    <path class="cls-1" d="M227.46,27.22c-.79-.76-1.69-1.33-2.7-1.7-1.02-.37-2.1-.55-3.24-.55-1.77,0-3.31.4-4.62,1.21-1.31.81-2.33,1.94-3.06,3.38-.73,1.44-1.09,3.12-1.09,5.03s.36,3.62,1.09,5.05c.72,1.43,1.76,2.53,3.11,3.31,1.35.78,2.95,1.17,4.81,1.17,1.44,0,2.72-.22,3.84-.66,1.12-.44,2.04-1.06,2.76-1.86.72-.8,1.21-1.74,1.47-2.82l-4.08-.46c-.19.52-.48.96-.86,1.32-.38.35-.83.62-1.34.8-.52.18-1.09.27-1.73.27-.95,0-1.78-.2-2.49-.61-.71-.41-1.26-.99-1.65-1.76-.38-.74-.57-1.63-.59-2.66h12.91v-1.34c0-1.63-.23-3.03-.68-4.21-.45-1.18-1.07-2.15-1.85-2.92ZM217.09,32.74c.04-.73.22-1.4.56-2.02.38-.7.9-1.26,1.58-1.69.68-.43,1.46-.65,2.35-.65.84,0,1.57.19,2.2.57s1.12.9,1.48,1.55c.35.66.54,1.4.54,2.24h-8.71Z"/>
    <path class="cls-1" d="M247.62,28.17c-.53-1.04-1.27-1.83-2.22-2.38-.95-.55-2.07-.82-3.35-.82-1.38,0-2.55.31-3.48.92-.94.61-1.62,1.44-2.05,2.48h-.22v-3.15h-4.18v18.55h4.37v-10.87c0-.89.17-1.65.5-2.28s.8-1.11,1.39-1.44,1.27-.5,2.03-.5c1.13,0,2.01.35,2.65,1.05.64.7.96,1.67.96,2.91v11.13h4.37v-11.81c0-1.48-.25-2.74-.78-3.78Z"/>
  </g>
</svg>